HIERARCHY
ROOT Hips
{
    OFFSET 0.000000 0.000000 0.000000
    CHANNELS 6 Xposition Yposition Zposition Zrotation Xrotation Yrotation
    JOINT Spine
    {
        OFFSET -0.000000 8.359812 0.000000
        CHANNELS 3 Zrotation Xrotation Yrotation
        JOINT Spine1
        {
            OFFSET -0.000000 28.141317 0.000000
            CHANNELS 3 Zrotation Xrotation Yrotation
            JOINT Neck
            {
                OFFSET -0.000000 28.025745 2.547795
                CHANNELS 3 Zrotation Xrotation Yrotation
                JOINT Head
                {
                    OFFSET -0.000000 14.272848 -2.038978
                    CHANNELS 3 Zrotation Xrotation Yrotation
                    End Site
                    {
                        OFFSET -0.000000 25.487228 0.000000
                    }
                }
            }
            JOINT LeftShoulder
            {
                OFFSET 4.059574 26.120710 -0.180480
                CHANNELS 3 Zrotation Xrotation Yrotation
                JOINT LeftArm
                {
                    OFFSET 11.584161 0.000000 0.000000
                    CHANNELS 3 Zrotation Xrotation Yrotation
                    JOINT LeftForeArm
                    {
                        OFFSET 30.766815 0.000000 0.000000
                        CHANNELS 3 Zrotation Xrotation Yrotation
                        JOINT LeftHand
                        {
                            OFFSET 29.436810 0.000000 0.000000
                            CHANNELS 3 Zrotation Xrotation Yrotation
                            End Site
                            {
                                OFFSET 15.292337 0.000000 0.000000
                            }
                        }
                    }
                }
            }
            JOINT RightShoulder
            {
                OFFSET -4.095355 26.120710 -0.180480
                CHANNELS 3 Zrotation Xrotation Yrotation
                JOINT RightArm
                {
                    OFFSET -11.584161 0.000000 0.000000
                    CHANNELS 3 Zrotation Xrotation Yrotation
                    JOINT RightForeArm
                    {
                        OFFSET -30.766815 0.000000 0.000000
                        CHANNELS 3 Zrotation Xrotation Yrotation
                        JOINT RightHand
                        {
                            OFFSET -29.436810 0.000000 0.000000
                            CHANNELS 3 Zrotation Xrotation Yrotation
                            End Site
                            {
                                OFFSET -15.292337 0.000000 0.000000
                            }
                        }
                    }
                }
            }
        }
    }
    JOINT LeftUpLeg
    {
        OFFSET 10.194892 0.000000 0.000000
        CHANNELS 3 Zrotation Xrotation Yrotation
        JOINT LeftLeg
        {
            OFFSET -0.000000 -32.520012 0.000000
            CHANNELS 3 Zrotation Xrotation Yrotation
            JOINT LeftFoot
            {
                OFFSET -0.000000 -49.106510 0.000000
                CHANNELS 3 Zrotation Xrotation Yrotation
                JOINT LeftToeBase
                {
                    OFFSET -0.000000 -6.626679 15.292337
                    CHANNELS 3 Zrotation Xrotation Yrotation
                    End Site
                    {
                        OFFSET -0.000000 0.000000 4.077957
                    }
                }
            }
        }
    }
    JOINT RightUpLeg
    {
        OFFSET -10.194892 0.000000 0.000000
        CHANNELS 3 Zrotation Xrotation Yrotation
        JOINT RightLeg
        {
            OFFSET -0.000000 -32.520012 0.000000
            CHANNELS 3 Zrotation Xrotation Yrotation
            JOINT RightFoot
            {
                OFFSET -0.000000 -49.106510 0.000000
                CHANNELS 3 Zrotation Xrotation Yrotation
                JOINT RightToeBase
                {
                    OFFSET -0.000000 -6.626679 15.292337
                    CHANNELS 3 Zrotation Xrotation Yrotation
                    End Site
                    {
                        OFFSET -0.000000 0.000000 4.077957
                    }
                }
            }
        }
    }
}
MOTION
Frames:    7
Frame Time:    0.008333
70.058556    132.781464    35.832138    -2.205687    -3.087424    82.377518    -0.834999    -10.185019    -1.747463    8.982306    4.614355    -2.035638    0.633794    26.548773    17.944372    -14.938498    -1.029338    16.558714    4.183431    0.382357    2.160207    -88.540276    36.328266    14.240828    4.151347    2.246275    -27.184984    3.251518    3.258249    0.316541    -16.657963    3.329240    -4.401827    83.652023    57.617142    -4.448126    -5.555264    -8.593643    24.541603    11.894051    -7.830773    -4.206755    3.962953    4.046807    -4.283359    -5.475109    -2.012708    -0.356713    -9.477629    9.072658    16.890144    0.000000    0.000000    0.000000    2.269867    1.524401    0.632852    2.574271    2.557406    5.067708    -14.328099    1.623829    -0.622708    0.000000    0.000000    0.000000    
70.201561    132.896317    35.830925    -2.188488    -2.937463    82.647850    -0.849307    -10.215150    -1.798236    9.016265    4.727571    -2.095235    0.961090    26.176226    17.927050    -15.296796    -0.566827    16.578588    4.376783    0.364624    2.160323    -89.153816    36.384335    14.847459    3.566679    1.987171    -26.451605    2.808275    2.838359    0.548819    -16.593216    3.198035    -4.512698    83.927338    57.730644    -4.681704    -5.999422    -8.900167    24.851484    12.186967    -8.025374    -4.107060    3.839777    3.938122    -4.014409    -5.556366    -1.807592    -0.696808    -9.632797    9.479554    16.984381    0.000000    0.000000    0.000000    2.060457    1.839524    0.801903    2.659683    2.144500    4.902159    -14.308253    2.120688    -0.718905    0.000000    0.000000    0.000000    
70.334747    132.983810    35.847275    -2.196836    -2.845078    82.826218    -0.705373    -10.372947    -1.848410    8.821820    5.172517    -2.183605    1.249561    25.476570    18.005138    -15.457103    -0.217129    16.703867    4.942855    0.177983    2.476960    -89.985413    36.618729    15.467422    3.095547    1.679830    -25.781822    1.720298    2.397688    0.646401    -16.654325    2.849651    -4.721210    83.941284    57.631191    -4.510702    -5.878461    -8.827324    25.239483    12.098803    -7.943586    -3.998726    3.743615    3.849552    -3.713336    -5.583389    -1.580362    -1.535615    -9.850774    9.632276    17.593769    0.000000    0.000000    0.000000    1.950173    2.008534    0.887141    2.641029    1.955234    4.947284    -14.255194    2.476889    -0.804633    0.000000    0.000000    0.000000    
70.381592    133.049637    35.870342    -2.310768    -2.799636    83.201569    -0.640479    -10.213780    -1.946753    8.905919    4.689883    -2.254939    1.318608    25.732067    17.874054    -15.563263    -0.185102    16.565126    4.679763    0.446374    2.269165    -90.100677    36.751404    15.940325    2.512342    1.293653    -25.054174    0.818829    1.855976    0.591397    -16.300705    3.073498    -4.464928    83.625328    57.374790    -4.449186    -6.088692    -9.024093    25.564732    11.801453    -8.065975    -4.001451    3.758794    3.412186    -3.594656    -5.677557    -1.113219    -2.137737    -9.714402    9.803680    17.857632    0.000000    0.000000    0.000000    1.949199    1.957932    0.752931    2.618248    1.899001    4.908210    -14.250301    2.812421    -0.896760    0.000000    0.000000    0.000000    
70.462105    133.126663    35.884621    -2.301471    -2.709372    83.465164    -0.573563    -10.146973    -2.008791    8.887130    4.701039    -2.323379    1.521182    25.604359    17.897102    -15.862230    -0.125180    16.572714    4.785228    0.460819    2.197174    -90.584282    36.958138    16.576904    2.116045    0.904660    -24.568129    -0.478888    1.362283    0.731820    -16.171137    3.062696    -4.473887    83.280571    57.239361    -4.149503    -6.109775    -8.990043    25.955126    11.412124    -7.999465    -4.079148    3.669179    3.184599    -3.490411    -5.694952    -0.863151    -0.888112    -9.640416    10.573957    16.423723    0.000000    0.000000    0.000000    1.875806    1.988787    0.669149    2.593935    1.918212    4.846025    -14.242782    3.144273    -0.907649    0.000000    0.000000    0.000000    
70.535278    133.175079    35.920345    -2.320449    -2.631665    83.677338    -0.549885    -10.049383    -2.024561    8.940357    4.645442    -2.339552    1.763084    25.321011    17.850449    -16.059086    0.146864    16.551260    4.802387    0.367649    2.179153    -90.996246    37.171581    17.233852    1.647232    0.640082    -24.013617    -1.660592    0.977196    0.910270    -16.091974    3.100041    -4.441392    83.290054    57.397556    -4.260136    -6.466144    -9.217653    26.505825    11.264935    -8.098382    -3.976630    3.631693    2.915540    -3.368808    -5.772703    -0.394561    -1.752813    -9.712910    10.439733    17.079678    0.000000    0.000000    0.000000    1.855138    1.924167    0.636225    2.562731    2.031947    4.764206    -14.347158    3.426292    -1.000648    0.000000    0.000000    0.000000    
70.596176    133.204681    35.959328    -2.323708    -2.550942    83.871559    -0.518671    -10.021890    -2.053444    8.946301    4.790769    -2.382937    2.008524    24.962309    17.783060    -16.263449    0.315085    16.490660    5.028623    0.518098    2.150317    -91.362038    37.331142    17.507507    1.334244    0.410866    -23.572519    -2.958614    0.660645    1.108085    -16.041866    3.071885    -4.430413    83.089127    57.517391    -4.083624    -6.591728    -9.394266    27.037453    10.843351    -8.201354    -3.996108    3.611941    2.653470    -3.359503    -5.865930    0.023335    -1.872368    -9.739472    10.414762    17.079239    0.000000    0.000000    0.000000    1.867107    1.823366    0.486010    2.447185    2.256003    4.957543    -14.376443    3.573900    -1.205974    0.000000    0.000000    0.000000    
